<?xml version="1.0" encoding="UTF-8"?>
<svg id="Layer_1" data-name="Layer 1" xmlns="http://www.w3.org/2000/svg" viewBox="0 0 371.93 854.82">
  <defs>
    <style>
      .cls-1 {
        fill: #936e24;
      }

      .cls-2 {
        fill: #c35a24;
      }
    </style>
  </defs>
  <path class="cls-1" d="M337.92,362.29s-74.44,33.24-100.55,36.86c21.24-13.17,97.79-61,59.85-43.13-4.6,2.17-40.88,18.97-74.44,37.09,27.52-33.24,75.16-51.56,102.93-59.9,12.02-3.61,24.72,2.96,28.72,14.86l12.42,36.94-28.92-22.72Z"/>
  <path class="cls-1" d="M72.36,133.53s74,34.12,99.62,38.75c-21.27-13.1-97.93-60.64-60.18-42.4,4.58,2.21,40.67,19.39,74.17,37.64-28.24-31.73-75.47-50.87-102.9-59.9-11.87-3.91-23.99,1.44-27.39,12.09l-10.57,33.07,27.26-19.26Z"/>
  <polygon class="cls-2" points="309.7 854.82 62.23 854.82 21.23 641.04 350.7 641.04 309.7 854.82"/>
  <polygon class="cls-2" points="366.27 622.33 5.66 622.33 0 579.37 371.93 579.37 366.27 622.33"/>
  <polygon class="cls-1" points="355.62 172.49 318.99 172.49 280.91 82.83 205.14 320.85 205.14 560.66 166.79 560.66 166.79 320.85 260.65 41.78 260.67 41.76 276.28 0 297.2 43.8 355.62 172.49"/>
  <polygon class="cls-1" points="260.67 41.76 260.65 41.78 260.65 41.76 260.67 41.76"/>
</svg>