<?xml version="1.0" encoding="UTF-8"?>
<svg id="Layer_1" xmlns="http://www.w3.org/2000/svg" version="1.1" viewBox="0 0 377.01 866.49">
  <!-- Generator: Adobe Illustrator 30.2.1, SVG Export Plug-In . SVG Version: 2.1.1 Build 1)  -->
  <defs>
    <style>
      .st0 {
        fill: #3c7a5e;
      }

      .st1 {
        fill: #c35a24;
      }
    </style>
  </defs>
  <polygon class="st1" points="313.93 866.49 63.08 866.49 21.52 649.79 355.49 649.79 313.93 866.49"/>
  <polygon class="st1" points="371.27 630.82 5.74 630.82 0 587.28 377.01 587.28 371.27 630.82"/>
  <path class="st0" d="M204.34,568.31h-31.66V144.55c0-39.1,6.96-77.89,20.55-114.55L204.34,0v568.31Z"/>
  <path class="st0" d="M306.07,433.29c-20.11,17.01-43.14,30.54-68.19,39.84,18.14-17.68,83.44-81.77,49.8-55.78-4.08,3.15-36.31,27.72-65.56,53,29.41-57.34,81.75-99.79,144.29-116.58-14.18,31-34.91,58.03-60.33,79.52Z"/>
  <path class="st0" d="M115.06,184.95c17.01,20.11,30.54,43.14,39.84,68.19-17.68-18.14-81.77-83.44-55.78-49.8,3.15,4.08,27.72,36.31,53,65.56-57.34-29.41-99.79-81.75-116.58-144.29,31,14.18,58.03,34.91,79.52,60.33Z"/>
</svg>